# xmcd
#
# Track frame offsets: 
#        180
#        12788
#        28405
#        37807
#        55966
#        67571
#        85429
#        96855
#        109739
#        122747
#        139007
#        151502
#        165737
#        177475
#        192232
#        209779
#        226795
#        245243
#        260429
#        269876
#        283013
#        292340
#        309538
#
# Disc length: 4309 seconds
#
# Revision: 0
# Processed by: cddbd v1.5.2PL0 Copyright (c) Steve Scherf et al.
# Submitted via: ExactAudioCopyFreeDBPlugin 1.0
#
DISCID=5710d317
DTITLE=Harbourtown - Hand Picked
DYEAR=1900
DGENRE=Bluegrass
TTITLE0=White Washed Chimney
TTITLE1=One Teardrop One Step Away
TTITLE2=God Spoke to Moses
TTITLE3=Lonesome Without You
TTITLE4=Running Back To You
TTITLE5=Drunk Man
TTITLE6=Old White Lines
TTITLE7=Have I told You
TTITLE8=I'm Walking
TTITLE9=Working on a Building
TTITLE10=Hard Time Blues
TTITLE11=Smokey Mountain Smoke
TTITLE12=Say Goodbye
TTITLE13=I'll be your Somebody New
TTITLE14=Picnic
TTITLE15=Walk On Willie
TTITLE16=Lillie Hoskins
TTITLE17=Country Poor Country Proud
TTITLE18=Don't Ask me Why
TTITLE19=Whiskey
TTITLE20=Spring Time in Heaven
TTITLE21=Don't Let them Take The Bible Out Of Our Schoolroom
TTITLE22=Mothers Request
EXTD=
EXTT0=
EXTT1=
EXTT2=
EXTT3=
EXTT4=
EXTT5=
EXTT6=
EXTT7=
EXTT8=
EXTT9=
EXTT10=
EXTT11=
EXTT12=
EXTT13=
EXTT14=
EXTT15=
EXTT16=
EXTT17=
EXTT18=
EXTT19=
EXTT20=
EXTT21=
EXTT22=
PLAYORDER=
